<?xml version="1.0" standalone="no"?>
<!DOCTYPE svg PUBLIC "-//W3C//DTD SVG 20010904//EN"
 "http://www.w3.org/TR/2001/REC-SVG-20010904/DTD/svg10.dtd">
<svg version="1.0" xmlns="http://www.w3.org/2000/svg"
 width="300.000000pt" height="300.000000pt" viewBox="0 0 300.000000 300.000000"
 preserveAspectRatio="xMidYMid meet">
<metadata>
Created by potrace 1.10, written by Peter Selinger 2001-2011
</metadata>
<g transform="translate(0.000000,300.000000) scale(0.100000,-0.100000)"
fill="#000000" stroke="none">
<path d="M2625 2758 c-465 -402 -562 -480 -587 -473 -41 13 -213 86 -221 94
-4 4 13 62 39 129 25 67 44 128 40 137 -14 39 -38 28 -125 -59 -103 -103 -101
-105 -101 67 0 106 0 108 -26 117 -14 6 -29 8 -34 5 -4 -2 -25 -54 -46 -115
-22 -60 -42 -110 -46 -110 -4 0 -32 52 -62 115 -55 115 -69 130 -98 101 -11
-10 -12 -36 -6 -127 5 -63 7 -118 5 -123 -2 -5 -34 20 -73 54 -135 125 -119
114 -148 95 l-25 -17 65 -130 c36 -72 63 -135 61 -142 -3 -6 -33 -21 -68 -34
-35 -13 -77 -30 -92 -38 -16 -8 -35 -14 -43 -14 -25 0 -200 110 -611 385 -218
146 -397 264 -399 262 -2 -3 362 -982 372 -998 11 -19 -13 -7 -93 44 l-71 46
-21 -23 -22 -23 77 -102 c42 -56 75 -103 73 -105 -2 -2 -51 5 -109 15 -140 24
-156 24 -163 -3 -3 -12 -4 -25 -2 -29 3 -4 52 -35 110 -69 58 -34 103 -65 101
-68 -3 -2 -58 -17 -123 -32 -106 -24 -118 -29 -121 -49 -2 -13 0 -27 5 -32 5
-5 64 -17 131 -26 67 -9 122 -20 122 -24 0 -4 -43 -40 -95 -80 -52 -39 -95
-74 -95 -76 0 -2 7 -14 15 -27 l15 -23 123 33 c67 18 124 31 126 29 2 -2 -21
-51 -50 -109 l-54 -105 22 -22 21 -22 76 62 c42 34 76 60 76 58 0 -2 -5 -18
-11 -35 -23 -65 5 -109 214 -347 186 -211 194 -219 244 -233 46 -13 58 -13 98
0 43 15 46 14 56 -3 9 -18 0 -19 -281 -19 l-290 0 0 106 c0 139 -12 180 -57
195 -44 14 -259 15 -296 0 -15 -6 -32 -23 -38 -38 -6 -17 -10 -127 -10 -276 0
-240 0 -250 23 -295 16 -34 34 -53 63 -67 38 -19 63 -20 590 -23 l550 -3 28
-46 c23 -37 31 -44 50 -39 12 3 102 6 199 6 l176 0 55 103 c55 101 488 888
505 917 7 11 20 -6 52 -70 23 -47 44 -87 46 -89 2 -2 15 0 30 3 l27 7 -6 131
c-5 102 -4 128 6 121 7 -6 50 -40 97 -78 47 -37 91 -70 98 -72 7 -3 21 2 32
12 18 17 17 20 -42 133 -35 65 -55 113 -47 110 29 -11 251 -69 254 -66 1 2 8
13 14 26 10 19 10 26 -2 35 -8 7 -54 41 -101 77 -100 74 -102 71 54 90 113 13
130 20 130 55 0 20 -11 25 -112 49 -62 14 -119 26 -125 26 -31 0 -6 20 98 79
104 60 110 66 104 90 -4 14 -8 27 -10 29 -2 2 -61 -6 -132 -17 -71 -12 -132
-21 -135 -21 -4 0 27 45 68 99 41 54 74 103 74 108 0 5 -6 17 -13 27 -13 18
-18 17 -86 -24 -39 -23 -74 -46 -77 -51 -3 -5 -10 -9 -15 -9 -15 0 -13 9 137
549 74 266 134 490 134 497 0 40 -57 2 -265 -178z m205 99 c0 -8 -9 -24 -19
-36 -10 -12 -36 -83 -57 -159 -21 -75 -74 -267 -118 -427 l-81 -290 -68 -11
c-79 -13 -73 -18 -81 80 -3 39 -15 88 -27 112 l-21 43 138 188 c75 104 142
195 148 203 10 13 9 13 -9 0 -36 -27 -455 -411 -455 -417 0 -3 38 -49 85 -103
46 -54 86 -104 87 -111 3 -12 -156 -38 -337 -55 l-71 -7 -194 105 c-107 58
-277 149 -377 203 -101 53 -183 100 -183 104 0 4 30 18 66 31 36 14 68 28 71
33 7 11 -80 170 -92 168 -10 -3 -47 70 -39 78 6 7 54 -41 54 -54 0 -10 49 -60
144 -145 l38 -35 -6 95 c-4 52 -9 107 -12 123 -3 16 -1 27 5 27 6 0 11 -6 11
-12 1 -7 22 -58 48 -113 l48 -100 38 107 c21 59 42 105 47 102 5 -3 9 -55 9
-117 l0 -112 85 85 c47 47 85 89 85 96 0 6 12 21 26 35 l26 24 -7 -25 c-4 -14
-15 -33 -25 -42 -18 -17 -84 -177 -76 -185 2 -2 79 -35 172 -72 l167 -67 281
240 c155 133 318 272 364 310 45 38 79 73 75 79 -3 5 2 16 12 24 23 16 25 16
25 0z m-2685 -57 c-3 -5 83 -69 192 -141 292 -195 547 -371 555 -383 4 -6 8
-25 8 -42 0 -16 6 -37 13 -46 6 -8 98 -73 202 -144 190 -128 447 -304 453
-309 2 -1 32 -83 68 -181 36 -99 71 -184 77 -191 7 -6 77 -19 157 -27 80 -9
157 -18 172 -21 24 -4 34 8 138 165 125 190 100 172 280 209 52 11 97 18 99
15 2 -2 -3 -12 -12 -22 -18 -19 -23 -37 -9 -28 5 3 55 12 113 21 57 10 111 23
120 31 8 8 31 14 50 14 l33 0 -23 -17 c-13 -9 -34 -17 -47 -19 -12 -1 -69 -28
-126 -60 l-102 -59 99 -22 c55 -13 111 -25 124 -28 13 -4 22 -8 20 -10 -2 -2
-51 -9 -109 -15 -58 -7 -111 -16 -118 -20 -9 -4 15 -28 78 -75 50 -37 89 -69
87 -72 -3 -2 -53 10 -112 27 -60 16 -110 28 -113 26 -7 -8 101 -206 113 -206
12 0 39 -49 32 -56 -6 -6 -57 36 -54 45 1 5 -40 43 -92 86 l-94 78 5 -122 c3
-66 4 -121 2 -121 -2 0 -20 32 -40 71 -19 39 -37 69 -39 68 -18 -19 -505 -928
-505 -943 0 -12 -19 -55 -42 -96 l-43 -75 -176 -3 -175 -2 -45 44 -45 44 181
4 c181 3 182 3 218 31 64 49 67 61 67 305 l0 219 -26 24 c-23 22 -34 24 -120
24 -84 0 -96 -2 -116 -23 -21 -21 -23 -33 -26 -150 -3 -82 -8 -129 -15 -134
-7 -4 -237 -5 -512 -2 -275 2 -506 4 -512 4 -10 0 -13 32 -13 129 l0 129 -31
26 c-27 23 -39 26 -114 26 -75 0 -87 -3 -114 -26 l-31 -26 0 -220 c0 -207 1
-223 21 -255 12 -18 37 -45 57 -58 41 -28 30 -33 -24 -10 -59 24 -64 50 -64
329 0 297 -12 276 160 276 63 0 120 -4 126 -8 25 -16 34 -56 34 -149 0 -96 1
-100 28 -126 l28 -27 190 0 c104 0 206 5 227 11 27 7 48 7 73 -1 29 -10 39 -9
68 9 31 19 36 20 62 6 21 -11 63 -15 154 -15 169 0 170 1 170 125 0 110 19
172 55 181 13 3 76 4 140 2 102 -3 118 -5 131 -22 11 -15 14 -60 16 -185 2
-215 3 -251 12 -286 17 -66 26 8 26 214 0 259 -5 285 -64 303 -57 18 -290 9
-309 -12 -26 -28 -37 -82 -37 -186 l0 -104 -140 0 -139 0 -25 36 -25 37 136
156 c75 86 155 176 178 201 54 59 73 124 56 189 -7 25 -19 53 -28 63 -23 26
-100 48 -165 48 l-58 0 -1 298 c0 359 -4 375 -84 405 -41 15 -73 18 -185 15
-160 -4 -185 -13 -217 -78 -21 -43 -22 -57 -23 -345 -1 -257 -3 -297 -14 -282
-12 16 -16 16 -23 4 -4 -8 -25 -16 -45 -19 l-37 -4 -3 43 -3 42 -92 -74 c-51
-41 -93 -72 -93 -68 0 3 23 48 51 100 28 52 49 97 46 99 -9 9 -198 -45 -232
-66 -33 -21 -65 -26 -65 -12 0 13 47 35 58 28 6 -3 12 -3 14 1 1 5 42 37 90
73 48 36 88 68 88 71 0 4 -52 12 -115 19 -63 7 -115 16 -115 20 0 3 48 17 108
30 59 13 111 25 115 28 11 6 -205 128 -220 124 -17 -4 -53 16 -53 29 0 10 48
2 66 -13 13 -9 235 -50 242 -44 6 7 -131 179 -147 183 -19 5 -55 52 -47 60 9
9 56 -18 56 -33 0 -12 159 -118 166 -111 3 3 -288 799 -354 968 -6 15 -18 29
-26 32 -9 4 -16 13 -16 22 0 13 4 14 20 5 11 -6 18 -15 15 -20z m1282 -174
c-9 -26 -32 -10 -35 24 l-2 35 20 -24 c11 -13 19 -29 17 -35z m203 14 c0 -28
-4 -40 -14 -40 -23 0 -25 12 -11 48 18 42 25 40 25 -8z m-97 -140 c-6 -22 -18
-26 -28 -10 -8 13 3 30 20 30 8 0 11 -7 8 -20z m-143 -25 c0 -26 -14 -33 -25
-15 -9 14 1 40 15 40 5 0 10 -11 10 -25z m986 -225 c-44 -67 -48 -84 -26 -132
20 -47 34 -134 22 -141 -10 -7 -142 148 -142 166 0 8 4 17 9 19 5 2 41 34 81
71 39 38 74 66 77 63 3 -3 -6 -24 -21 -46z m-1396 19 c42 -22 55 -22 130 6 44
16 44 16 63 -9 20 -28 81 -66 232 -146 106 -56 312 -166 434 -232 46 -26 92
-42 121 -45 77 -7 367 34 399 56 20 15 31 17 45 9 18 -10 108 -6 151 7 15 5
24 -1 37 -23 15 -25 16 -31 3 -48 -22 -29 -18 -40 25 -86 30 -30 38 -43 28
-49 -20 -13 -52 -10 -74 6 -10 8 -33 15 -49 15 -46 0 -217 -39 -242 -55 -12
-8 -66 -81 -120 -162 -54 -82 -101 -152 -104 -157 -4 -5 -46 -4 -100 2 -52 6
-119 14 -149 17 -30 3 -61 9 -68 14 -11 7 -84 187 -125 310 -17 50 -47 75
-259 219 -211 143 -408 279 -416 286 -9 10 -19 86 -11 86 5 0 27 -10 49 -21z
m158 -333 c47 -24 52 -62 52 -375 l0 -282 25 -24 c20 -21 34 -25 82 -25 80 0
124 -24 141 -74 22 -67 -2 -114 -135 -267 -64 -74 -119 -136 -122 -139 -26
-21 -92 -113 -94 -129 -1 -14 -8 -19 -27 -19 -14 1 -42 -5 -62 -12 -62 -23
-101 8 -292 225 -92 105 -174 200 -182 212 -9 12 -19 49 -24 83 -5 34 -16 70
-25 80 -15 17 -13 20 22 49 44 36 56 38 85 11 25 -23 38 -24 98 -6 33 10 46
19 48 35 2 11 8 21 13 21 5 0 9 118 9 291 0 286 2 311 34 345 18 19 317 19
354 0z m-705 -57 c-4 -4 -17 -1 -28 7 -20 15 -20 15 0 30 18 13 20 12 28 -7 4
-13 4 -26 0 -30z m2227 -49 c-26 -37 -37 -43 -46 -29 -4 8 5 22 22 36 40 31
50 29 24 -7z m-2457 -301 c-5 -5 -22 -7 -37 -3 -29 7 -25 19 9 26 25 6 43 -8
28 -23z m2652 -15 c13 -5 14 -8 3 -15 -21 -14 -48 -10 -48 6 0 16 17 19 45 9z
m-2501 -33 c3 -5 -1 -14 -8 -21 -12 -9 -17 -7 -26 9 -9 18 -8 21 9 21 11 0 22
-4 25 -9z m2446 -175 c11 -14 9 -16 -11 -16 -33 0 -51 14 -43 33 7 18 30 11
54 -17z m-183 0 c-6 -17 -31 -13 -35 6 -2 12 2 15 18 11 11 -3 19 -11 17 -17z
m-2218 -110 c9 -11 6 -18 -15 -35 -33 -26 -40 -21 -24 19 14 33 22 37 39 16z
m1 -601 l0 -155 568 0 567 0 -3 155 -3 155 105 0 106 0 0 -226 0 -226 -29 -29
-29 -29 -714 0 c-660 0 -715 2 -734 18 -41 33 -44 53 -44 276 l0 216 105 0
105 0 0 -155z"/>
<path d="M381 2468 c41 -46 125 -135 187 -199 l113 -117 -16 -55 c-10 -36 -15
-84 -13 -141 l3 -85 110 128 c60 71 110 132 112 137 1 5 -15 21 -35 35 -20 14
-146 105 -279 202 -133 98 -245 177 -249 177 -3 0 27 -37 67 -82z m339 -248
c3 -3 26 -21 52 -39 26 -19 49 -40 52 -47 3 -8 -24 -47 -62 -91 l-67 -77 -3
53 c-2 29 2 67 7 84 18 51 13 64 -54 132 -36 36 -65 70 -65 76 0 8 124 -72
140 -91z"/>
<path d="M808 1901 l-33 -29 -2 -318 c-1 -175 -5 -324 -7 -331 -4 -9 -29 -13
-87 -13 -94 0 -130 -16 -155 -68 -15 -31 -14 -35 8 -72 26 -44 323 -385 375
-430 53 -47 101 -35 161 39 18 22 54 64 81 93 117 128 262 303 267 323 7 28
-19 80 -49 97 -12 7 -62 15 -112 18 l-90 5 -3 327 -2 326 -35 31 -36 31 -124
0 c-124 0 -125 0 -157 -29z m296 -27 c14 -13 16 -60 16 -362 l0 -347 105 3
c117 4 155 -8 155 -51 0 -35 -377 -461 -411 -465 -22 -3 -48 22 -190 185 -260
297 -246 276 -208 314 19 19 30 20 130 17 l109 -3 0 344 c0 306 2 346 17 363
14 16 33 18 139 18 98 0 126 -3 138 -16z"/>
</g>
</svg>
